<svg xmlns="http://www.w3.org/2000/svg" viewBox="0 0 512 512" style="enable-background:new 0 0 512 512" xml:space="preserve"><path style="fill:#3b5156" d="M189.65 70.045a7.607 7.607 0 0 1-.001 10.759l-19.366 19.367a7.607 7.607 0 0 1-10.76 0l-19.367-19.366a7.607 7.607 0 0 1 0-10.76l19.367-19.367a7.607 7.607 0 0 1 10.76 0l19.367 19.367zM285.044 37.69a5.402 5.402 0 0 1-.001 7.644l-13.76 13.761a5.405 5.405 0 0 1-7.646 0l-13.76-13.759a5.407 5.407 0 0 1 0-7.646l13.76-13.761a5.405 5.405 0 0 1 7.646 0l13.761 13.761z"/><path style="fill:#5c8693" d="M372.489 87.444a5.402 5.402 0 0 1-.001 7.644l-13.76 13.761a5.405 5.405 0 0 1-7.646 0l-13.76-13.76a5.405 5.405 0 0 1 0-7.646l13.76-13.761a5.405 5.405 0 0 1 7.646 0l13.761 13.762z"/><path style="fill:#3b5156" d="m156.857 177.215 37.304 37.304 41.173-41.175c8.435-8.434 20.741-10.628 31.196-6.595l11.054-11.054-33.671-33.672c-11.413-11.412-29.916-11.412-41.33 0l-51.01 51.011a29.176 29.176 0 0 1 5.284 4.181z"/><path style="fill:#435154" d="M264.901 229.62h104.781l12.417-12.417c10.054-10.053 10.054-26.354 0-36.408l-46.603-46.604c-10.054-10.053-26.355-10.053-36.408 0l-46.604 46.604c-10.054 10.054-10.054 26.355 0 36.408l12.417 12.417z"/><path style="fill:#52676d" d="m209.262 229.62-52.405-52.405c-11.412-11.412-29.916-11.412-41.329 0L63.123 229.62h146.139z"/><path style="fill:#52676d" d="M332.468 229.62a29.345 29.345 0 0 0-2.901-3.374l-52.901-52.902c-11.413-11.412-29.918-11.412-41.331 0l-52.9 52.902a29.43 29.43 0 0 0-2.901 3.374h152.934z"/><path style="fill:#5c8693" d="m442.166 229.62-45.695-45.694c-11.412-11.412-29.916-11.412-41.329 0l-45.694 45.694h132.718z"/><path style="fill:#b78355" d="M58.737 258.278c-10.499 0-16.354 8.252-13.012 18.339l50.772 153.199c3.343 10.085 14.667 18.338 25.167 18.338h268.674c10.5 0 21.826-8.253 25.167-18.338l50.772-153.199c3.342-10.086-2.513-18.339-13.012-18.339H58.737z"/><path style="fill:#635349" d="m435.701 368.874 14.198-42.841H62.101l14.197 42.841z"/><path style="opacity:.1;enable-background:new" d="m140.236 429.816-50.772-153.2c-3.342-10.086 2.513-18.339 13.012-18.339H58.737c-10.499 0-16.354 8.252-13.012 18.339l50.772 153.199c3.343 10.085 14.667 18.338 25.167 18.338h43.739c-10.5.001-21.825-8.252-25.167-18.337z"/><path style="fill:#5c8693" d="M234.883 229.62a11.012 11.012 0 0 0-2.399-3.592l-28.207-28.207c-4.328-4.328-11.343-4.328-15.671 0L160.4 226.028a11.042 11.042 0 0 0-2.4 3.592h76.883z"/><ellipse style="fill:#666" cx="177.027" cy="446.851" rx="42.235" ry="42.8"/><path style="fill:#ccc" d="M177.023 463.533c-8.883 0-16.109-7.481-16.109-16.678 0-9.195 7.227-16.676 16.109-16.676 8.884 0 16.11 7.48 16.11 16.676.002 9.196-7.226 16.678-16.11 16.678z"/><ellipse style="fill:#666" cx="334.973" cy="446.851" rx="42.235" ry="42.8"/><path style="fill:#ccc" d="M334.974 463.533c-8.884 0-16.11-7.481-16.11-16.678 0-9.195 7.227-16.676 16.11-16.676 8.884 0 16.111 7.48 16.111 16.676.001 9.196-7.227 16.678-16.111 16.678z"/><path style="fill:#635349" d="M504.163 260.572c0 7.123-5.698 12.897-12.727 12.897H20.564c-7.029 0-12.727-5.773-12.727-12.897v-18.055c0-7.122 5.698-12.897 12.727-12.897h470.873c7.029 0 12.727 5.774 12.727 12.897v18.055z"/><path style="fill:#635349" d="M491.436 229.62H20.564c-7.029 0-12.727 5.774-12.727 12.897v18.055c0 7.123 5.698 12.897 12.727 12.897h24.421c-1.281-8.598 4.372-15.191 13.752-15.191h394.526c9.38 0 15.033 6.593 13.751 15.191h24.422c7.029 0 12.727-5.773 12.727-12.897v-18.055c0-7.123-5.698-12.897-12.727-12.897z"/><path style="opacity:.1;enable-background:new" d="M50.155 260.572v-18.055c0-7.122 5.698-12.897 12.727-12.897H20.564c-7.029 0-12.727 5.774-12.727 12.897v18.055c0 7.123 5.698 12.897 12.727 12.897h42.318c-7.029 0-12.727-5.774-12.727-12.897z"/><path d="M153.981 105.713a15.345 15.345 0 0 0 10.921 4.524c4.125 0 8.004-1.607 10.921-4.524l19.366-19.367a15.34 15.34 0 0 0 4.524-10.92c0-4.125-1.606-8.004-4.523-10.921l-19.367-19.367a15.344 15.344 0 0 0-10.921-4.523 15.344 15.344 0 0 0-10.921 4.523l-19.366 19.365a15.342 15.342 0 0 0-4.525 10.921c0 4.125 1.606 8.004 4.524 10.922l19.367 19.367zm10.922-49.333 19.044 19.044-19.044 19.046-19.045-19.044 19.045-19.046zM258.097 64.639a13.158 13.158 0 0 0 9.363 3.878c3.537 0 6.862-1.377 9.364-3.88l13.758-13.759a13.15 13.15 0 0 0 3.882-9.365c0-3.537-1.377-6.862-3.879-9.364l-13.761-13.761c-2.503-2.501-5.827-3.879-9.364-3.879s-6.862 1.376-9.365 3.879l-13.76 13.761c-5.162 5.162-5.163 13.564 0 18.729l13.762 13.761zm9.363-33.45 10.323 10.324-10.324 10.325-10.323-10.324 10.324-10.325zM345.543 114.393c2.502 2.5 5.826 3.878 9.363 3.878s6.862-1.377 9.364-3.88l13.758-13.759a13.152 13.152 0 0 0 3.882-9.365c0-3.537-1.377-6.862-3.879-9.364L364.27 68.14c-2.503-2.5-5.827-3.879-9.364-3.879s-6.862 1.376-9.365 3.879l-13.76 13.761c-5.162 5.163-5.162 13.563 0 18.729l13.762 13.763zm9.363-33.452 10.323 10.324-10.324 10.325-10.323-10.324 10.324-10.325zM177.023 471.37c13.204 0 23.947-10.996 23.947-24.514 0-13.517-10.743-24.512-23.947-24.512-13.204 0-23.946 10.995-23.946 24.512.001 13.517 10.743 24.514 23.946 24.514zm0-33.353c4.562 0 8.273 3.965 8.273 8.839 0 4.874-3.711 8.841-8.273 8.841-4.562 0-8.272-3.966-8.272-8.841 0-4.874 3.711-8.839 8.272-8.839zM334.974 471.37c13.205 0 23.948-10.996 23.948-24.514 0-13.517-10.743-24.512-23.948-24.512-13.204 0-23.947 10.995-23.947 24.512 0 13.517 10.743 24.514 23.947 24.514zm0-33.353c4.562 0 8.275 3.965 8.275 8.839 0 4.874-3.713 8.841-8.275 8.841s-8.274-3.966-8.274-8.841c.001-4.874 3.712-8.839 8.274-8.839z"/><path d="M491.436 221.783h-46.025l-43.399-43.4c-5.958-5.957-13.59-9.627-21.833-10.59l-39.143-39.143c-6.343-6.341-14.776-9.835-23.745-9.835-8.97 0-17.403 3.493-23.746 9.835l-15.959 15.96-28.13-28.13c-7.001-7-16.308-10.854-26.206-10.854-9.899 0-19.206 3.854-26.206 10.854l-47.006 47.007a37.011 37.011 0 0 0-13.846-2.67c-9.899 0-19.206 3.855-26.206 10.854l-50.109 50.11H20.564C9.224 221.783 0 231.084 0 242.517v18.055c0 11.432 9.224 20.734 20.564 20.734h18.459l50.034 150.975c4.406 13.295 18.729 23.709 32.606 23.709h6.123c4.266 23.574 24.714 41.502 49.238 41.502s44.971-17.927 49.239-41.502h59.475c4.266 23.574 24.714 41.502 49.238 41.502 24.525 0 44.972-17.927 49.239-41.502h6.123c13.878 0 28.201-10.416 32.606-23.71l2.89-8.722a7.836 7.836 0 0 0-4.974-9.904 7.835 7.835 0 0 0-9.904 4.974l-2.89 8.722c-2.289 6.907-10.573 12.966-17.729 12.966h-5.724c-3.183-24.841-24.222-44.096-49.639-44.096-25.416 0-46.454 19.255-49.638 44.096h-58.674c-3.183-24.841-24.222-44.096-49.638-44.096s-46.454 19.255-49.637 44.096h-5.724c-7.154 0-15.439-6.059-17.729-12.966l-16.782-50.64h337.695l-3.85 11.616a7.837 7.837 0 0 0 4.974 9.905 7.835 7.835 0 0 0 9.905-4.974l37.102-111.952h18.459c11.339 0 20.564-9.301 20.564-20.734v-18.055c-.001-11.432-9.225-20.733-20.565-20.733zM334.974 411.894c18.966 0 34.397 15.684 34.397 34.961 0 19.278-15.431 34.963-34.397 34.963s-34.396-15.685-34.396-34.963c0-19.277 15.43-34.961 34.396-34.961zm-157.951 0c18.966 0 34.396 15.684 34.396 34.961 0 19.278-15.43 34.963-34.396 34.963s-34.395-15.685-34.395-34.963c.001-19.277 15.431-34.961 34.395-34.961zM390.93 189.466l32.318 32.318h-94.88l32.318-32.318c4.039-4.039 9.409-6.263 15.123-6.263s11.082 2.224 15.121 6.263zm-110.17-.945a7.837 7.837 0 0 0 11.083-11.082l-9.638-9.637a37.254 37.254 0 0 0-2.977-2.669l25.4-25.4a17.79 17.79 0 0 1 12.662-5.243c4.784 0 9.281 1.862 12.662 5.243l30.926 30.926a37.028 37.028 0 0 0-11.279 7.725l-28.407 28.407-8.576-8.575a7.835 7.835 0 0 0-11.082 0 7.834 7.834 0 0 0-.001 11.082l8.577 8.577-3.91 3.91h-67.008a19.027 19.027 0 0 0-1.169-1.297l-19.375-19.374 22.226-22.226c8.338-8.339 21.909-8.339 30.248-.001l9.638 9.634zm-72.633-60.956a21.246 21.246 0 0 1 15.124-6.264 21.258 21.258 0 0 1 15.124 6.263l28.13 28.131-2.212 2.211c-12.023-2.74-25.155.553-34.498 9.896l-22.427 22.428a18.77 18.77 0 0 0-10.925-3.491 18.795 18.795 0 0 0-13.377 5.541l-.029.03-19.826-19.827 44.916-44.918zm9.029 94.218h-41.428l18.419-18.422a3.231 3.231 0 0 1 2.295-.95 3.23 3.23 0 0 1 2.294.95l18.42 18.422zm-96.086-39.028a21.248 21.248 0 0 1 15.123-6.263 21.254 21.254 0 0 1 15.123 6.263l20.636 20.637-17.092 17.093c-.416.414-.799.851-1.17 1.297H82.043l39.027-39.027zm308.972 178.282H81.958l-9.004-27.167h366.091l-9.003 27.167zm66.285-100.465c0 2.79-2.194 5.06-4.89 5.06H119.118a7.837 7.837 0 1 0 0 15.674h337.347l-12.225 36.891H67.761l-12.225-36.891h27.012a7.837 7.837 0 0 0 0-15.674H20.564c-2.697 0-4.89-2.271-4.89-5.06v-18.055c0-2.791 2.193-5.06 4.89-5.06h470.873c2.696 0 4.89 2.27 4.89 5.06v18.055z"/></svg>